<?xml version="1.0" encoding="UTF-8" standalone="no"?>
<!-- Creator: CorelDRAW -->

<svg
   xmlns:dc="http://purl.org/dc/elements/1.1/"
   xmlns:cc="http://creativecommons.org/ns#"
   xmlns:rdf="http://www.w3.org/1999/02/22-rdf-syntax-ns#"
   xmlns:svg="http://www.w3.org/2000/svg"
   xmlns="http://www.w3.org/2000/svg"
   xmlns:sodipodi="http://sodipodi.sourceforge.net/DTD/sodipodi-0.dtd"
   xmlns:inkscape="http://www.inkscape.org/namespaces/inkscape"
   xml:space="preserve"
   width="200px"
   height="150px"
   style="shape-rendering:geometricPrecision; image-rendering:optimizeQuality"
   viewBox="0 0 200 150"
   id="svg2"
   version="1.1"
   inkscape:version="0.48.5 r10040"
   sodipodi:docname="hd.svg"><metadata
     id="metadata12"><rdf:RDF><cc:Work
         rdf:about=""><dc:format>image/svg+xml</dc:format><dc:type
           rdf:resource="http://purl.org/dc/dcmitype/StillImage" /><dc:title></dc:title></cc:Work></rdf:RDF></metadata><defs
     id="defs10" /><sodipodi:namedview
     pagecolor="#ffffff"
     bordercolor="#666666"
     borderopacity="1"
     objecttolerance="10"
     gridtolerance="10"
     guidetolerance="10"
     inkscape:pageopacity="0"
     inkscape:pageshadow="2"
     inkscape:window-width="1329"
     inkscape:window-height="742"
     id="namedview8"
     showgrid="false"
     inkscape:zoom="1.5733333"
     inkscape:cx="79.389466"
     inkscape:cy="125.84746"
     inkscape:window-x="360"
     inkscape:window-y="67"
     inkscape:window-maximized="0"
     inkscape:current-layer="svg2"
     showguides="true"
     inkscape:guide-bbox="true"><sodipodi:guide
       orientation="1,0"
       position="-30.508475,59.110169"
       id="guide3784" /></sodipodi:namedview><path
     style="fill:#784040;fill-opacity:1"
     d="m 104.24576,41.68644 -15.000003,63 -21,0 6,-26 -24,0 -6,26 -22,0 15,-63 21,0 -5,22 24,0 5,-22 22.000003,0 z m 13,0 29,0 c 13,0 20,2 24,7 4,5 6,11 6,19 0,8 -2,15 -5,21 -4,7 -8,11 -13,13 -5,2 -14,3 -18,3 l -37,0 14,-63 z m 12,49 10,0 c 5,0 9,-3 11,-8 3,-6 4,-11 4,-17 0,-3 -1,-6 -2,-7 -2,-2 -4,-3 -8,-3 l -7,0 -8,35 z"
     id="path6"
     inkscape:connector-curvature="0"
     inkscape:export-filename="/var/www/bachview/web/images/buttons/hidef.png"
     inkscape:export-xdpi="23.9"
     inkscape:export-ydpi="23.9" /><rect
     style="fill:#000000;fill-opacity:1;stroke:#000000;stroke-width:1.39999998000000003;stroke-linecap:butt;stroke-linejoin:round;stroke-miterlimit:4;stroke-opacity:1;stroke-dasharray:none"
     id="rect2989"
     width="186.8644"
     height="94.067795"
     x="5.8135595"
     y="26.152542"
     ry="19.067797"
     inkscape:export-filename="/var/www/bachview/web/images/buttons/hidef.png"
     inkscape:export-xdpi="23.9"
     inkscape:export-ydpi="23.9" /><path
     inkscape:connector-curvature="0"
     id="path3787"
     d="m 104.24576,41.68644 -15.000003,63 -21,0 6,-26 -24,0 -6,26 -22,0 15,-63 21,0 -5,22 24,0 5,-22 22.000003,0 z m 13,0 29,0 c 13,0 20,2 24,7 4,5 6,11 6,19 0,8 -2,15 -5,21 -4,7 -8,11 -13,13 -5,2 -14,3 -18,3 l -37,0 14,-63 z m 12,49 10,0 c 5,0 9,-3 11,-8 3,-6 4,-11 4,-17 0,-3 -1,-6 -2,-7 -2,-2 -4,-3 -8,-3 l -7,0 -8,35 z"
     style="fill:#8e8e8e;fill-opacity:1;opacity:1"
     inkscape:export-filename="/var/www/bachview/web/images/buttons/hidef.png"
     inkscape:export-xdpi="23.9"
     inkscape:export-ydpi="23.9" /><path
     style="fill:#784040;fill-opacity:1"
     d="m 104.24576,-118.31356 -15.000004,63 -21,0 6,-26.000002 -24,0 -6,26.000002 -22,0 15,-63 21,0 -5,21.999998 24,0 5,-21.999998 22.000004,0 z m 13,0 29,0 c 13,0 20,2 24,7 4,5 6,11 6,18.999998 0,8 -2,15.000002 -5,21.000002 -4,7 -8,11 -13,13 -5,2 -14,3 -18,3 l -37,0 14,-63 z m 12,49 10,0 c 5,0 9,-3 11,-8 3,-6.000002 4,-11.000002 4,-17.000002 0,-3 -1,-5.999998 -2,-6.999998 -2,-2 -4,-3 -8,-3 l -7,0 -8,35 z"
     id="path6-2"
     inkscape:connector-curvature="0"
     inkscape:export-filename="/var/www/bachview/web/images/buttons/hidef.png"
     inkscape:export-xdpi="23.9"
     inkscape:export-ydpi="23.9" /><rect
     style="fill:#000000;fill-opacity:1;stroke:#000000;stroke-width:1.39999998;stroke-linecap:butt;stroke-linejoin:round;stroke-miterlimit:4;stroke-opacity:1;stroke-dasharray:none"
     id="rect2989-4"
     width="186.8644"
     height="94.067795"
     x="5.8135595"
     y="-133.84746"
     ry="19.067797"
     inkscape:export-filename="/var/www/bachview/web/images/buttons/hidef.png"
     inkscape:export-xdpi="23.9"
     inkscape:export-ydpi="23.9" /><path
     inkscape:connector-curvature="0"
     id="path3787-7"
     d="m 104.24576,-118.31356 -15.000004,63 -21,0 6,-26.000002 -24,0 -6,26.000002 -22,0 15,-63 21,0 -5,21.999998 24,0 5,-21.999998 22.000004,0 z m 13,0 29,0 c 13,0 20,2 24,7 4,5 6,11 6,18.999998 0,8 -2,15.000002 -5,21.000002 -4,7 -8,11 -13,13 -5,2 -14,3 -18,3 l -37,0 14,-63 z m 12,49 10,0 c 5,0 9,-3 11,-8 3,-6.000002 4,-11.000002 4,-17.000002 0,-3 -1,-5.999998 -2,-6.999998 -2,-2 -4,-3 -8,-3 l -7,0 -8,35 z"
     style="fill:#9d0715;fill-opacity:1"
     inkscape:export-filename="/var/www/bachview/web/images/buttons/hidef.png"
     inkscape:export-xdpi="23.9"
     inkscape:export-ydpi="23.9" /></svg>