<?xml version="1.0" encoding="UTF-8" standalone="no"?>
<!-- Generator: Adobe Illustrator 16.0.0, SVG Export Plug-In . SVG Version: 6.00 Build 0)  -->

<svg
   xmlns:dc="http://purl.org/dc/elements/1.1/"
   xmlns:cc="http://creativecommons.org/ns#"
   xmlns:rdf="http://www.w3.org/1999/02/22-rdf-syntax-ns#"
   xmlns:svg="http://www.w3.org/2000/svg"
   xmlns="http://www.w3.org/2000/svg"
   xmlns:xlink="http://www.w3.org/1999/xlink"
   xmlns:sodipodi="http://sodipodi.sourceforge.net/DTD/sodipodi-0.dtd"
   xmlns:inkscape="http://www.inkscape.org/namespaces/inkscape"
   version="1.1"
   id="Calque_1"
   x="0px"
   y="0px"
   width="850.39px"
   height="850.39px"
   viewBox="0 0 850.39 850.39"
   enable-background="new 0 0 850.39 850.39"
   xml:space="preserve"
   inkscape:version="0.48.4 r9939"
   sodipodi:docname="logo.svg"><metadata
     id="metadata73"><rdf:RDF><cc:Work
         rdf:about=""><dc:format>image/svg+xml</dc:format><dc:type
           rdf:resource="http://purl.org/dc/dcmitype/StillImage" /><dc:title></dc:title></cc:Work></rdf:RDF></metadata><defs
     id="defs71"><linearGradient
       inkscape:collect="always"
       xlink:href="#SVGID_5_"
       id="linearGradient3087"
       gradientUnits="userSpaceOnUse"
       gradientTransform="matrix(0.9911,-0.1328,-0.1328,-0.9911,-405.5663,712.2147)"
       x1="606.93988"
       y1="154.59331"
       x2="958.23962"
       y2="173.9431" /><linearGradient
       inkscape:collect="always"
       xlink:href="#SVGID_10_"
       id="linearGradient3089"
       gradientUnits="userSpaceOnUse"
       gradientTransform="matrix(0.9911,-0.1328,-0.1328,-0.9911,-405.5663,712.2147)"
       x1="860.11182"
       y1="467.94479"
       x2="991.09851"
       y2="272.9498" /><linearGradient
       inkscape:collect="always"
       xlink:href="#SVGID_5_"
       id="linearGradient3149"
       gradientUnits="userSpaceOnUse"
       gradientTransform="matrix(0.9911,-0.1328,-0.1328,-0.9911,-405.5663,712.2147)"
       x1="606.93988"
       y1="154.59331"
       x2="958.23962"
       y2="173.9431" /><linearGradient
       inkscape:collect="always"
       xlink:href="#SVGID_10_"
       id="linearGradient3151"
       gradientUnits="userSpaceOnUse"
       gradientTransform="matrix(0.9911,-0.1328,-0.1328,-0.9911,-405.5663,712.2147)"
       x1="860.11182"
       y1="467.94479"
       x2="991.09851"
       y2="272.9498" /></defs><sodipodi:namedview
     pagecolor="#ffffff"
     bordercolor="#666666"
     borderopacity="1"
     objecttolerance="10"
     gridtolerance="10"
     guidetolerance="10"
     inkscape:pageopacity="0"
     inkscape:pageshadow="2"
     inkscape:window-width="1920"
     inkscape:window-height="1140"
     id="namedview69"
     showgrid="false"
     inkscape:zoom="0.27751972"
     inkscape:cx="-145.93557"
     inkscape:cy="425.19501"
     inkscape:window-x="0"
     inkscape:window-y="27"
     inkscape:window-maximized="1"
     inkscape:current-layer="Calque_1" /><g
     id="g3190"
     inkscape:export-filename="/var/www/bachview/web/images/logo.png"
     inkscape:export-xdpi="6.3029861"
     inkscape:export-ydpi="6.3029861"><g
       transform="translate(-815.32383,80.895893)"
       id="g5"><g
         id="g7"><defs
           id="defs9"><path
             id="SVGID_1_"
             d="M 495.707,182.638 C 334.62,171.118 215.484,253.27 207.13,289.673 c -8.354,36.407 -36.58,94.612 -52.312,125.385 0,0 -11.634,22.883 -15.718,30.785 -4.102,7.912 -12.374,22.971 5.903,44.053 18.268,21.09 52.297,66.523 258.42,41.088 C 609.582,505.586 728.185,386.69 722.892,319.777 717.613,252.874 656.789,194.121 495.707,182.638 z m -20.571,208.619 c -54.556,4.36 -126.257,12.499 -210.935,-26.882 0,0 65.762,-24.987 132.457,-26.583 66.687,-1.572 118.335,10.613 126.796,19.042 8.493,8.416 6.247,30.042 -48.318,34.423 z"
             inkscape:connector-curvature="0" /></defs><clipPath
           id="SVGID_2_"><use
             xlink:href="#SVGID_1_"
             overflow="visible"
             id="use13"
             style="overflow:visible"
             x="0"
             y="0"
             width="850.39001"
             height="850.39001" /></clipPath><polygon
           clip-path="url(#SVGID_2_)"
           points="482.236,345.45 521.248,170.185 321.41,176.936 351.593,352.656 "
           id="polygon15"
           style="fill:#551112" /></g><g
         id="g17"><defs
           id="defs19"><path
             id="SVGID_3_"
             d="M 495.707,182.638 C 334.62,171.118 215.484,253.27 207.13,289.673 c -8.354,36.407 -36.58,94.612 -52.312,125.385 0,0 -11.634,22.883 -15.718,30.785 -4.102,7.912 -12.374,22.971 5.903,44.053 18.268,21.09 52.297,66.523 258.42,41.088 C 609.582,505.586 728.185,386.69 722.892,319.777 717.613,252.874 656.789,194.121 495.707,182.638 z m -20.571,208.619 c -54.556,4.36 -126.257,12.499 -210.935,-26.882 0,0 65.762,-24.987 132.457,-26.583 66.687,-1.572 118.335,10.613 126.796,19.042 8.493,8.416 6.247,30.042 -48.318,34.423 z"
             inkscape:connector-curvature="0" /></defs><clipPath
           id="SVGID_4_"><use
             xlink:href="#SVGID_3_"
             overflow="visible"
             id="use23"
             style="overflow:visible"
             x="0"
             y="0"
             width="850.39001"
             height="850.39001" /></clipPath><linearGradient
           id="SVGID_5_"
           gradientUnits="userSpaceOnUse"
           x1="606.93988"
           y1="154.59331"
           x2="958.23962"
           y2="173.9431"
           gradientTransform="matrix(0.9911,-0.1328,-0.1328,-0.9911,-405.5663,712.2147)"><stop
             offset="0"
             style="stop-color:#CD4242"
             id="stop26" /><stop
             offset="1"
             style="stop-color:#9A1915"
             id="stop28" /></linearGradient><polygon
           clip-path="url(#SVGID_4_)"
           points="232.947,235.483 124.765,338.948 107.629,723.273 843.251,373.887 521.976,376.557 "
           id="polygon30"
           style="fill:url(#linearGradient3149)" /></g><g
         id="g32"><defs
           id="defs34"><path
             id="SVGID_6_"
             d="M 495.707,182.638 C 334.62,171.118 215.484,253.27 207.13,289.673 c -8.354,36.407 -36.58,94.612 -52.312,125.385 0,0 -11.634,22.883 -15.718,30.785 -4.102,7.912 -12.374,22.971 5.903,44.053 18.268,21.09 52.297,66.523 258.42,41.088 C 609.582,505.586 728.185,386.69 722.892,319.777 717.613,252.874 656.789,194.121 495.707,182.638 z m -20.571,208.619 c -54.556,4.36 -126.257,12.499 -210.935,-26.882 0,0 65.762,-24.987 132.457,-26.583 66.687,-1.572 118.335,10.613 126.796,19.042 8.493,8.416 6.247,30.042 -48.318,34.423 z"
             inkscape:connector-curvature="0" /></defs><clipPath
           id="SVGID_7_"><use
             xlink:href="#SVGID_6_"
             overflow="visible"
             id="use38"
             style="overflow:visible"
             x="0"
             y="0"
             width="850.39001"
             height="850.39001" /></clipPath><path
           clip-path="url(#SVGID_7_)"
           d="M 514.302,354.384 699.333,233.267 c 0,0 43.811,45.602 41.484,77.528 -2.352,31.911 -29.561,70.134 -29.561,70.134 l -189.283,-4.372 -7.671,-22.173 z"
           id="path40"
           inkscape:connector-curvature="0"
           style="fill:#841814" /></g><g
         id="g42"><defs
           id="defs44"><path
             id="SVGID_8_"
             d="M 495.707,182.638 C 334.62,171.118 215.484,253.27 207.13,289.673 c -8.354,36.407 -36.58,94.612 -52.312,125.385 0,0 -11.634,22.883 -15.718,30.785 -4.102,7.912 -12.374,22.971 5.903,44.053 18.268,21.09 52.297,66.523 258.42,41.088 C 609.582,505.586 728.185,386.69 722.892,319.777 717.613,252.874 656.789,194.121 495.707,182.638 z m -20.571,208.619 c -54.556,4.36 -126.257,12.499 -210.935,-26.882 0,0 65.762,-24.987 132.457,-26.583 66.687,-1.572 118.335,10.613 126.796,19.042 8.493,8.416 6.247,30.042 -48.318,34.423 z"
             inkscape:connector-curvature="0" /></defs><clipPath
           id="SVGID_9_"><use
             xlink:href="#SVGID_8_"
             overflow="visible"
             id="use48"
             style="overflow:visible"
             x="0"
             y="0"
             width="850.39001"
             height="850.39001" /></clipPath><linearGradient
           id="SVGID_10_"
           gradientUnits="userSpaceOnUse"
           x1="860.11182"
           y1="467.94479"
           x2="991.09851"
           y2="272.9498"
           gradientTransform="matrix(0.9911,-0.1328,-0.1328,-0.9911,-405.5663,712.2147)"><stop
             offset="0"
             style="stop-color:#3C1114"
             id="stop51" /><stop
             offset="1"
             style="stop-color:#9A1915"
             id="stop53" /></linearGradient><path
           clip-path="url(#SVGID_9_)"
           d="m 250.775,242.572 c 0,0 -106.848,63.675 13.426,121.803 L 521.974,376.557 951.929,389.356 472.228,93.209 250.775,242.572 z"
           id="path55"
           style="fill:url(#linearGradient3151)"
           inkscape:connector-curvature="0" /></g></g><g
       transform="matrix(2.0782576,0,0,2.0782576,-521.39951,-901.99067)"
       id="g57"><g
         id="g59"><path
           d="m 314.971,667.732 c 0,19.984 -15.579,30.215 -37.453,30.215 h -46.265 c -3.62,0 -4.563,-1.732 -4.563,-4.564 v -94.576 c 0,-2.832 0.944,-4.563 4.563,-4.563 h 44.062 c 25.65,0 36.667,13.691 36.667,28.482 0,15.895 -10.071,20.93 -11.487,21.561 1.257,0.47 14.476,6.451 14.476,23.445 z m -25.021,-2.359 c 0,-7.396 -5.508,-9.6 -13.061,-9.6 h -3.62 c -3.619,0 -4.563,-1.73 -4.563,-4.564 V 639.25 c 0,-2.832 0.944,-4.564 4.563,-4.564 h 2.046 c 9.127,0 13.061,-3.303 13.061,-9.439 0,-7.082 -4.878,-8.814 -13.061,-8.814 h -23.919 v 59.17 h 26.437 c 7.711,-0.002 12.117,-3.15 12.117,-10.23 z"
           id="path61"
           inkscape:connector-curvature="0"
           style="fill:#d8c4ad" /><path
           d="m 416.467,697.947 h -16.522 c -3.462,0 -4.722,-0.945 -5.98,-4.723 l -4.406,-12.432 h -38.554 l -4.406,12.432 c -1.259,3.777 -2.518,4.723 -5.979,4.723 h -16.523 c -3.462,0 -3.462,-2.52 -2.675,-4.406 l 34.935,-94.262 c 1.26,-3.305 2.99,-4.879 6.452,-4.879 h 15.107 c 3.462,0 5.036,1.574 6.452,4.879 l 34.776,94.262 c 0.785,1.888 0.785,4.406 -2.677,4.406 z m -34.305,-39.184 -11.802,-34.777 -11.803,34.777 h 23.605 z"
           id="path63"
           inkscape:connector-curvature="0"
           style="fill:#d8c4ad" /><path
           d="m 467.292,700.306 c -18.727,0 -42.172,-10.857 -42.172,-35.563 v -37.139 c 0,-24.705 23.448,-35.564 42.172,-35.564 19.514,0 38.869,9.914 40.916,29.9 0,3.775 -1.26,4.563 -4.879,4.563 h -15.107 c -3.305,0 -3.461,-2.99 -4.721,-4.879 -3.305,-5.193 -7.711,-7.553 -16.209,-7.553 -10.385,0 -17.467,5.82 -17.467,15.734 v 32.732 c 0,10.07 7.082,15.736 17.467,15.736 8.498,0 15.266,-3.146 16.523,-10.701 0.473,-3.146 0.787,-5.664 4.25,-5.664 h 15.42 c 3.463,0 4.723,1.572 4.723,5.35 0,20.302 -21.402,33.048 -40.916,33.048 z"
           id="path65"
           inkscape:connector-curvature="0"
           style="fill:#d8c4ad" /><path
           d="m 607.658,598.964 v 94.418 c 0,3.619 -1.732,4.564 -4.564,4.564 h -15.578 c -2.834,0 -4.563,-0.945 -4.563,-4.564 V 657.82 h -35.094 v 35.563 c 0,3.619 -1.572,4.564 -4.563,4.564 h -15.58 c -2.832,0 -4.563,-0.945 -4.563,-4.564 v -94.418 c 0,-3.619 1.73,-4.563 4.563,-4.563 h 15.58 c 2.99,0 4.563,0.943 4.563,4.563 v 35.564 h 35.094 v -35.564 c 0,-3.619 1.729,-4.563 4.563,-4.563 h 15.578 c 2.831,-0.002 4.564,0.943 4.564,4.562 z"
           id="path67"
           inkscape:connector-curvature="0"
           style="fill:#d8c4ad" /></g></g></g></svg>